<mxfile host="app.diagrams.net" modified="2023-03-31T06:08:12.619Z" agent="Mozilla/5.0 (X11; Ubuntu; Linux x86_64; rv:109.0) Gecko/20100101 Firefox/111.0" etag="LlF8il1zDH9s3pEb0lSX" version="21.1.1" type="github">
  <diagram id="C5RBs43oDa-KdzZeNtuy" name="Page-1">
    <mxGraphModel dx="713" dy="297" grid="1" gridSize="10" guides="1" tooltips="1" connect="1" arrows="1" fold="1" page="1" pageScale="1" pageWidth="827" pageHeight="1169" math="0" shadow="0">
      <root>
        <mxCell id="WIyWlLk6GJQsqaUBKTNV-0" />
        <mxCell id="WIyWlLk6GJQsqaUBKTNV-1" parent="WIyWlLk6GJQsqaUBKTNV-0" />
        <mxCell id="WIyWlLk6GJQsqaUBKTNV-2" value="" style="rounded=0;html=1;jettySize=auto;orthogonalLoop=1;fontSize=11;endArrow=classic;endFill=1;strokeWidth=1;shadow=0;labelBackgroundColor=none;edgeStyle=orthogonalEdgeStyle;exitX=0.5;exitY=1;exitDx=0;exitDy=0;entryX=0.5;entryY=0;entryDx=0;entryDy=0;" parent="WIyWlLk6GJQsqaUBKTNV-1" source="kycyycP08WIOVgFceS8p-0" target="WIyWlLk6GJQsqaUBKTNV-6" edge="1">
          <mxGeometry relative="1" as="geometry">
            <mxPoint x="330" y="120" as="sourcePoint" />
            <mxPoint x="330" y="170" as="targetPoint" />
          </mxGeometry>
        </mxCell>
        <mxCell id="WIyWlLk6GJQsqaUBKTNV-4" value="Yes" style="rounded=0;html=1;jettySize=auto;orthogonalLoop=1;fontSize=11;endArrow=classic;endFill=1;strokeWidth=1;shadow=0;labelBackgroundColor=none;edgeStyle=orthogonalEdgeStyle;entryX=0.5;entryY=0;entryDx=0;entryDy=0;" parent="WIyWlLk6GJQsqaUBKTNV-1" source="WIyWlLk6GJQsqaUBKTNV-6" target="kycyycP08WIOVgFceS8p-2" edge="1">
          <mxGeometry x="-0.5" y="20" relative="1" as="geometry">
            <mxPoint as="offset" />
            <mxPoint x="330" y="290" as="targetPoint" />
          </mxGeometry>
        </mxCell>
        <mxCell id="WIyWlLk6GJQsqaUBKTNV-5" value="No" style="edgeStyle=orthogonalEdgeStyle;rounded=0;html=1;jettySize=auto;orthogonalLoop=1;fontSize=11;endArrow=classic;endFill=1;strokeWidth=1;shadow=0;labelBackgroundColor=none;entryX=0.5;entryY=1;entryDx=0;entryDy=0;" parent="WIyWlLk6GJQsqaUBKTNV-1" source="WIyWlLk6GJQsqaUBKTNV-6" target="kycyycP08WIOVgFceS8p-1" edge="1">
          <mxGeometry x="-0.8" y="10" relative="1" as="geometry">
            <mxPoint as="offset" />
            <mxPoint x="430" y="210" as="targetPoint" />
          </mxGeometry>
        </mxCell>
        <mxCell id="WIyWlLk6GJQsqaUBKTNV-6" value="Proceed?" style="rhombus;whiteSpace=wrap;html=1;shadow=0;fontFamily=Helvetica;fontSize=12;align=center;strokeWidth=1;spacing=6;spacingTop=-4;" parent="WIyWlLk6GJQsqaUBKTNV-1" vertex="1">
          <mxGeometry x="280" y="170" width="100" height="50" as="geometry" />
        </mxCell>
        <mxCell id="kycyycP08WIOVgFceS8p-0" value="&lt;div&gt;Program Start&lt;/div&gt;" style="rounded=1;whiteSpace=wrap;html=1;" vertex="1" parent="WIyWlLk6GJQsqaUBKTNV-1">
          <mxGeometry x="285" y="90" width="90" height="30" as="geometry" />
        </mxCell>
        <mxCell id="kycyycP08WIOVgFceS8p-1" value="&lt;div&gt;Program End&lt;/div&gt;" style="rounded=1;whiteSpace=wrap;html=1;" vertex="1" parent="WIyWlLk6GJQsqaUBKTNV-1">
          <mxGeometry x="520" y="90" width="90" height="30" as="geometry" />
        </mxCell>
        <mxCell id="kycyycP08WIOVgFceS8p-8" style="edgeStyle=orthogonalEdgeStyle;rounded=0;orthogonalLoop=1;jettySize=auto;html=1;exitX=0.5;exitY=1;exitDx=0;exitDy=0;entryX=0.5;entryY=0;entryDx=0;entryDy=0;" edge="1" parent="WIyWlLk6GJQsqaUBKTNV-1" source="kycyycP08WIOVgFceS8p-2" target="kycyycP08WIOVgFceS8p-7">
          <mxGeometry relative="1" as="geometry" />
        </mxCell>
        <mxCell id="kycyycP08WIOVgFceS8p-2" value="&lt;div&gt;Conditional&lt;/div&gt;&lt;div&gt;File Input&lt;/div&gt;" style="shape=parallelogram;perimeter=parallelogramPerimeter;whiteSpace=wrap;html=1;fixedSize=1;" vertex="1" parent="WIyWlLk6GJQsqaUBKTNV-1">
          <mxGeometry x="280" y="270" width="100" height="40" as="geometry" />
        </mxCell>
        <mxCell id="kycyycP08WIOVgFceS8p-4" style="edgeStyle=orthogonalEdgeStyle;rounded=0;orthogonalLoop=1;jettySize=auto;html=1;exitX=0.5;exitY=1;exitDx=0;exitDy=0;" edge="1" parent="WIyWlLk6GJQsqaUBKTNV-1" source="kycyycP08WIOVgFceS8p-1" target="kycyycP08WIOVgFceS8p-1">
          <mxGeometry relative="1" as="geometry" />
        </mxCell>
        <mxCell id="kycyycP08WIOVgFceS8p-13" style="edgeStyle=orthogonalEdgeStyle;rounded=0;orthogonalLoop=1;jettySize=auto;html=1;exitX=0.5;exitY=1;exitDx=0;exitDy=0;" edge="1" parent="WIyWlLk6GJQsqaUBKTNV-1" source="kycyycP08WIOVgFceS8p-7" target="kycyycP08WIOVgFceS8p-12">
          <mxGeometry relative="1" as="geometry" />
        </mxCell>
        <mxCell id="kycyycP08WIOVgFceS8p-7" value="&lt;div&gt;Conditional&lt;/div&gt;&lt;div&gt;Cypher Input&lt;br&gt;&lt;/div&gt;" style="shape=parallelogram;perimeter=parallelogramPerimeter;whiteSpace=wrap;html=1;fixedSize=1;" vertex="1" parent="WIyWlLk6GJQsqaUBKTNV-1">
          <mxGeometry x="455" y="270" width="100" height="40" as="geometry" />
        </mxCell>
        <mxCell id="kycyycP08WIOVgFceS8p-11" value="&lt;div&gt;These conditional inputs only trigger&lt;/div&gt;&lt;div&gt;on the first program loop. Subsequent&lt;/div&gt;&lt;div&gt;loops call an alternate prompt asking&lt;/div&gt;&lt;div&gt;if they want to replace the previous file&lt;/div&gt;&lt;div&gt;or continue using it.&lt;br&gt;&lt;/div&gt;" style="text;html=1;align=center;verticalAlign=middle;resizable=0;points=[];autosize=1;strokeColor=none;fillColor=none;" vertex="1" parent="WIyWlLk6GJQsqaUBKTNV-1">
          <mxGeometry x="55" y="245" width="230" height="90" as="geometry" />
        </mxCell>
        <mxCell id="kycyycP08WIOVgFceS8p-15" style="edgeStyle=orthogonalEdgeStyle;rounded=0;orthogonalLoop=1;jettySize=auto;html=1;exitX=0;exitY=0.5;exitDx=0;exitDy=0;entryX=0.5;entryY=0;entryDx=0;entryDy=0;" edge="1" parent="WIyWlLk6GJQsqaUBKTNV-1" source="kycyycP08WIOVgFceS8p-12" target="kycyycP08WIOVgFceS8p-18">
          <mxGeometry relative="1" as="geometry">
            <mxPoint x="240" y="580" as="targetPoint" />
            <Array as="points">
              <mxPoint x="340" y="415" />
            </Array>
          </mxGeometry>
        </mxCell>
        <mxCell id="kycyycP08WIOVgFceS8p-20" value="File contains non-crypt char" style="edgeLabel;html=1;align=center;verticalAlign=middle;resizable=0;points=[];" vertex="1" connectable="0" parent="kycyycP08WIOVgFceS8p-15">
          <mxGeometry x="0.0192" y="5" relative="1" as="geometry">
            <mxPoint x="-5" y="11" as="offset" />
          </mxGeometry>
        </mxCell>
        <mxCell id="kycyycP08WIOVgFceS8p-16" style="edgeStyle=orthogonalEdgeStyle;rounded=0;orthogonalLoop=1;jettySize=auto;html=1;exitX=1;exitY=0.5;exitDx=0;exitDy=0;entryX=0.5;entryY=0;entryDx=0;entryDy=0;" edge="1" parent="WIyWlLk6GJQsqaUBKTNV-1" source="kycyycP08WIOVgFceS8p-12" target="kycyycP08WIOVgFceS8p-19">
          <mxGeometry relative="1" as="geometry">
            <mxPoint x="420" y="580" as="targetPoint" />
            <Array as="points">
              <mxPoint x="495" y="415" />
            </Array>
          </mxGeometry>
        </mxCell>
        <mxCell id="kycyycP08WIOVgFceS8p-21" value="Else" style="edgeLabel;html=1;align=center;verticalAlign=middle;resizable=0;points=[];" vertex="1" connectable="0" parent="kycyycP08WIOVgFceS8p-16">
          <mxGeometry x="0.3694" relative="1" as="geometry">
            <mxPoint y="-5" as="offset" />
          </mxGeometry>
        </mxCell>
        <mxCell id="kycyycP08WIOVgFceS8p-12" value="&lt;div&gt;Discerner Function&lt;br&gt;&lt;/div&gt;" style="rhombus;whiteSpace=wrap;html=1;" vertex="1" parent="WIyWlLk6GJQsqaUBKTNV-1">
          <mxGeometry x="349" y="380" width="130" height="70" as="geometry" />
        </mxCell>
        <mxCell id="kycyycP08WIOVgFceS8p-17" value="&lt;div&gt;This conditional is driven internally&lt;/div&gt;&lt;div&gt;rather than by the user, it reads the&lt;/div&gt;&lt;div&gt;file and if it contains a single char&lt;/div&gt;&lt;div&gt;that isnt 0, 1, or space, it is deter-&lt;/div&gt;&lt;div&gt;mined to be plaintext and sent to&lt;/div&gt;&lt;div&gt;the encryption pipeline. Otherwise&lt;/div&gt;&lt;div&gt;it is sent to the decryption pipeline.&lt;br&gt;&lt;/div&gt;" style="text;html=1;align=center;verticalAlign=middle;resizable=0;points=[];autosize=1;strokeColor=none;fillColor=none;" vertex="1" parent="WIyWlLk6GJQsqaUBKTNV-1">
          <mxGeometry x="120" y="340" width="210" height="110" as="geometry" />
        </mxCell>
        <mxCell id="kycyycP08WIOVgFceS8p-25" style="edgeStyle=orthogonalEdgeStyle;rounded=0;orthogonalLoop=1;jettySize=auto;html=1;exitX=0.5;exitY=1;exitDx=0;exitDy=0;entryX=0;entryY=0.5;entryDx=0;entryDy=0;" edge="1" parent="WIyWlLk6GJQsqaUBKTNV-1" source="kycyycP08WIOVgFceS8p-18" target="kycyycP08WIOVgFceS8p-24">
          <mxGeometry relative="1" as="geometry">
            <Array as="points">
              <mxPoint x="340" y="610" />
              <mxPoint x="359" y="610" />
            </Array>
          </mxGeometry>
        </mxCell>
        <mxCell id="kycyycP08WIOVgFceS8p-18" value="&lt;div&gt;Encryption Function&lt;br&gt;&lt;/div&gt;&lt;div&gt;(Tree Class)&lt;br&gt;&lt;/div&gt;" style="rounded=0;whiteSpace=wrap;html=1;" vertex="1" parent="WIyWlLk6GJQsqaUBKTNV-1">
          <mxGeometry x="280" y="510" width="120" height="60" as="geometry" />
        </mxCell>
        <mxCell id="kycyycP08WIOVgFceS8p-26" style="edgeStyle=orthogonalEdgeStyle;rounded=0;orthogonalLoop=1;jettySize=auto;html=1;exitX=0.5;exitY=1;exitDx=0;exitDy=0;entryX=1;entryY=0.5;entryDx=0;entryDy=0;" edge="1" parent="WIyWlLk6GJQsqaUBKTNV-1" source="kycyycP08WIOVgFceS8p-19" target="kycyycP08WIOVgFceS8p-24">
          <mxGeometry relative="1" as="geometry">
            <mxPoint x="495" y="650" as="targetPoint" />
            <Array as="points">
              <mxPoint x="495" y="610" />
              <mxPoint x="479" y="610" />
            </Array>
          </mxGeometry>
        </mxCell>
        <mxCell id="kycyycP08WIOVgFceS8p-19" value="&lt;div&gt;Decryption Function&lt;br&gt;&lt;/div&gt;(Hash Map Class)" style="rounded=0;whiteSpace=wrap;html=1;" vertex="1" parent="WIyWlLk6GJQsqaUBKTNV-1">
          <mxGeometry x="435" y="510" width="120" height="60" as="geometry" />
        </mxCell>
        <mxCell id="kycyycP08WIOVgFceS8p-41" value="&lt;div&gt;Yes&lt;/div&gt;" style="edgeStyle=orthogonalEdgeStyle;rounded=0;orthogonalLoop=1;jettySize=auto;html=1;exitX=0;exitY=1;exitDx=0;exitDy=0;entryX=0.5;entryY=0;entryDx=0;entryDy=0;" edge="1" parent="WIyWlLk6GJQsqaUBKTNV-1" source="kycyycP08WIOVgFceS8p-24" target="kycyycP08WIOVgFceS8p-32">
          <mxGeometry x="-0.3847" y="-20" relative="1" as="geometry">
            <Array as="points">
              <mxPoint x="390" y="625" />
              <mxPoint x="390" y="651" />
            </Array>
            <mxPoint as="offset" />
          </mxGeometry>
        </mxCell>
        <mxCell id="kycyycP08WIOVgFceS8p-45" style="edgeStyle=orthogonalEdgeStyle;rounded=0;orthogonalLoop=1;jettySize=auto;html=1;exitX=1;exitY=1;exitDx=0;exitDy=0;entryX=1;entryY=0;entryDx=0;entryDy=0;" edge="1" parent="WIyWlLk6GJQsqaUBKTNV-1" source="kycyycP08WIOVgFceS8p-24" target="kycyycP08WIOVgFceS8p-43">
          <mxGeometry relative="1" as="geometry" />
        </mxCell>
        <mxCell id="kycyycP08WIOVgFceS8p-24" value="&lt;div&gt;Result Save&lt;/div&gt;&lt;div&gt;Conditional&lt;br&gt;&lt;/div&gt;" style="rhombus;whiteSpace=wrap;html=1;fixedSize=1;" vertex="1" parent="WIyWlLk6GJQsqaUBKTNV-1">
          <mxGeometry x="359" y="580" width="120" height="60" as="geometry" />
        </mxCell>
        <mxCell id="kycyycP08WIOVgFceS8p-46" style="edgeStyle=orthogonalEdgeStyle;rounded=0;orthogonalLoop=1;jettySize=auto;html=1;exitX=0.5;exitY=1;exitDx=0;exitDy=0;entryX=0;entryY=0;entryDx=0;entryDy=0;" edge="1" parent="WIyWlLk6GJQsqaUBKTNV-1" source="kycyycP08WIOVgFceS8p-32" target="kycyycP08WIOVgFceS8p-43">
          <mxGeometry relative="1" as="geometry" />
        </mxCell>
        <mxCell id="kycyycP08WIOVgFceS8p-32" value="&lt;div&gt;Console / File &lt;br&gt;&lt;/div&gt;&lt;div&gt;Result Print&lt;br&gt;&lt;/div&gt;" style="rounded=0;whiteSpace=wrap;html=1;" vertex="1" parent="WIyWlLk6GJQsqaUBKTNV-1">
          <mxGeometry x="345" y="676" width="89" height="40" as="geometry" />
        </mxCell>
        <mxCell id="kycyycP08WIOVgFceS8p-47" style="edgeStyle=orthogonalEdgeStyle;rounded=0;orthogonalLoop=1;jettySize=auto;html=1;exitX=0;exitY=0.5;exitDx=0;exitDy=0;entryX=0.33;entryY=-0.075;entryDx=0;entryDy=0;entryPerimeter=0;" edge="1" parent="WIyWlLk6GJQsqaUBKTNV-1" source="kycyycP08WIOVgFceS8p-43" target="kycyycP08WIOVgFceS8p-2">
          <mxGeometry relative="1" as="geometry">
            <mxPoint x="330" y="230" as="targetPoint" />
            <Array as="points">
              <mxPoint x="20" y="798" />
              <mxPoint x="20" y="230" />
              <mxPoint x="313" y="230" />
            </Array>
          </mxGeometry>
        </mxCell>
        <mxCell id="kycyycP08WIOVgFceS8p-48" value="&lt;div&gt;Yes&lt;/div&gt;" style="edgeLabel;html=1;align=center;verticalAlign=middle;resizable=0;points=[];" vertex="1" connectable="0" parent="kycyycP08WIOVgFceS8p-47">
          <mxGeometry x="-0.9564" y="-1" relative="1" as="geometry">
            <mxPoint x="12" y="-16" as="offset" />
          </mxGeometry>
        </mxCell>
        <mxCell id="kycyycP08WIOVgFceS8p-49" style="edgeStyle=orthogonalEdgeStyle;rounded=0;orthogonalLoop=1;jettySize=auto;html=1;exitX=1;exitY=0.5;exitDx=0;exitDy=0;entryX=0.667;entryY=1;entryDx=0;entryDy=0;entryPerimeter=0;" edge="1" parent="WIyWlLk6GJQsqaUBKTNV-1" source="kycyycP08WIOVgFceS8p-43" target="kycyycP08WIOVgFceS8p-1">
          <mxGeometry relative="1" as="geometry">
            <mxPoint x="580" y="160" as="targetPoint" />
            <Array as="points">
              <mxPoint x="580" y="798" />
            </Array>
          </mxGeometry>
        </mxCell>
        <mxCell id="kycyycP08WIOVgFceS8p-50" value="&lt;div&gt;No&lt;/div&gt;" style="edgeLabel;html=1;align=center;verticalAlign=middle;resizable=0;points=[];" vertex="1" connectable="0" parent="kycyycP08WIOVgFceS8p-49">
          <mxGeometry x="-0.9447" y="2" relative="1" as="geometry">
            <mxPoint x="-6" y="-15" as="offset" />
          </mxGeometry>
        </mxCell>
        <mxCell id="kycyycP08WIOVgFceS8p-43" value="Restart Prompt" style="rhombus;whiteSpace=wrap;html=1;" vertex="1" parent="WIyWlLk6GJQsqaUBKTNV-1">
          <mxGeometry x="360" y="765" width="118" height="65" as="geometry" />
        </mxCell>
        <mxCell id="kycyycP08WIOVgFceS8p-53" value="Terminus" style="rounded=1;whiteSpace=wrap;html=1;" vertex="1" parent="WIyWlLk6GJQsqaUBKTNV-1">
          <mxGeometry x="40" y="30" width="60" height="30" as="geometry" />
        </mxCell>
        <mxCell id="kycyycP08WIOVgFceS8p-54" value="Conditional" style="rhombus;whiteSpace=wrap;html=1;" vertex="1" parent="WIyWlLk6GJQsqaUBKTNV-1">
          <mxGeometry x="30" y="70" width="80" height="50" as="geometry" />
        </mxCell>
        <mxCell id="kycyycP08WIOVgFceS8p-55" value="Input" style="shape=parallelogram;perimeter=parallelogramPerimeter;whiteSpace=wrap;html=1;fixedSize=1;" vertex="1" parent="WIyWlLk6GJQsqaUBKTNV-1">
          <mxGeometry x="125" y="80" width="80" height="30" as="geometry" />
        </mxCell>
        <mxCell id="kycyycP08WIOVgFceS8p-56" value="Process" style="rounded=0;whiteSpace=wrap;html=1;" vertex="1" parent="WIyWlLk6GJQsqaUBKTNV-1">
          <mxGeometry x="130" y="30" width="70" height="30" as="geometry" />
        </mxCell>
      </root>
    </mxGraphModel>
  </diagram>
</mxfile>
